<svg width="24" height="24" viewBox="0 0 24 24" fill="none" xmlns="http://www.w3.org/2000/svg">
<g clip-path="url(#clip0_28_410)">
<path d="M20.9999 6.70478C20.3258 6.98925 19.6109 7.17597 18.8788 7.25875C19.6414 6.82334 20.2269 6.13386 20.5026 5.31235C19.7777 5.72215 18.9846 6.01089 18.1576 6.16608C17.4839 5.48235 16.5242 5.05505 15.462 5.05505C13.4225 5.05505 11.769 6.63029 11.769 8.57314C11.769 8.84892 11.8017 9.1174 11.8646 9.37496C8.79546 9.22819 6.07436 7.82759 4.25292 5.69905C3.9351 6.21866 3.753 6.82307 3.753 7.46774C3.753 8.68835 4.405 9.76515 5.39585 10.3961C4.8094 10.3786 4.23587 10.2277 3.72311 9.95599C3.7229 9.97073 3.7229 9.98546 3.7229 10.0003C3.7229 11.7049 4.99584 13.1268 6.68517 13.45C6.14136 13.5909 5.57095 13.6115 5.0175 13.5103C5.48739 14.908 6.85125 15.9251 8.46717 15.9536C7.2033 16.8972 5.61093 17.4597 3.88082 17.4597C3.5827 17.4597 3.28879 17.443 2.99988 17.4105C4.63415 18.4087 6.57527 18.9911 8.66074 18.9911C15.4534 18.9911 19.1678 13.6302 19.1678 8.98115C19.1678 8.82855 19.1643 8.67683 19.1571 8.52598C19.8801 8.02807 20.5041 7.41135 20.9999 6.70478Z" fill="white"/>
</g>
<defs>
<clipPath id="clip0_28_410">
<rect width="18" height="14" fill="white" transform="translate(2.99988 5)"/>
</clipPath>
</defs>
</svg>
